# xmcd CD database file
#
# Track frame offsets:
#	150
#	9623
#	24492
#	42100
#	54516
#	68037
#	77307
#	90046
#	104846
#	124646
#	141899
#	156760
#	171419
#	183904
#
# Disc length: 2677 seconds
#
# Revision: 0
# Processed by: cddbd v1.5.2PL0 Copyright (c) Steve Scherf et al.
# Submitted via: CDex 1.70beta2
#
DISCID=a80a730e
DTITLE=SUPERBUS - Album WOW - 14 Titres
DYEAR=2008
DGENRE=Power Pop
TTITLE0=SUPERBUS - Le rock a billy
TTITLE1=SUPERBUS - Ramdam
TTITLE2=SUPERBUS - Butterfly
TTITLE3=SUPERBUS - Over you
TTITLE4=SUPERBUS - Iola
TTITLE5=SUPERBUS - Tiens le fil
TTITLE6=SUPERBUS - Un peu de douleur
TTITLE7=SUPERBUS - Let me hold you
TTITLE8=SUPERBUS - On monday
TTITLE9=SUPERBUS - Travel the world
TTITLE10=SUPERBUS - Jenn je t'aime
TTITLE11=SUPERBUS - Ca mousse
TTITLE12=SUPERBUS - Bad boy killer
TTITLE13=SUPERBUS - Breath
EXTD=YEAR: 2008
EXTT0=
EXTT1=
EXTT2=
EXTT3=
EXTT4=
EXTT5=
EXTT6=
EXTT7=
EXTT8=
EXTT9=
EXTT10=
EXTT11=
EXTT12=
EXTT13=
PLAYORDER=
